<?xml version="1.0" encoding="utf-8"?>
<!-- Generator: Adobe Illustrator 16.0.0, SVG Export Plug-In . SVG Version: 6.00 Build 0)  -->
<!DOCTYPE svg PUBLIC "-//W3C//DTD SVG 1.1//EN" "http://www.w3.org/Graphics/SVG/1.1/DTD/svg11.dtd">
<svg version="1.1" xmlns="http://www.w3.org/2000/svg" xmlns:xlink="http://www.w3.org/1999/xlink" x="0px" y="0px" width="45px"
	 height="45px" viewBox="0 0 45 45" enable-background="new 0 0 45 45" xml:space="preserve">
<g id="Layer_2" display="none">
	<rect x="-204.5" y="-98.701" display="inline" fill="#1D1D1B" width="410" height="198.5"/>
</g>
<g id="Layer_1">
	<g>
		<path fill="#00CA71" d="M14.632,29.071c-0.691,0-1.297-0.647-1.297-1.384c0-0.543,0.343-1.033,0.853-1.219
			c0.667-0.242,1.442,0.086,2.128,0.903c0.461,0.548,1.279,0.62,1.828,0.158c0.548-0.46,0.62-1.278,0.158-1.827
			c-0.7-0.834-1.517-1.408-2.373-1.697V22.5c0-0.716-0.581-1.296-1.297-1.296c-0.716,0-1.297,0.581-1.297,1.296v1.52
			c-0.011,0.004-0.022,0.008-0.034,0.012c-1.531,0.558-2.559,2.027-2.559,3.656c0,1.034,0.398,2.019,1.119,2.773
			c0.742,0.776,1.727,1.205,2.771,1.205c0.715,0,1.297,0.582,1.297,1.296c0,0.522-0.311,0.991-0.792,1.195
			c-0.581,0.246-1.275,0.035-1.907-0.576c-0.515-0.498-1.335-0.485-1.833,0.029c-0.499,0.514-0.485,1.335,0.029,1.834
			c0.585,0.567,1.236,0.968,1.91,1.194v1.511c0,0.716,0.582,1.297,1.297,1.297c0.716,0,1.297-0.581,1.297-1.297v-1.52
			c1.582-0.562,2.593-2.038,2.593-3.668C18.522,30.816,16.778,29.071,14.632,29.071z"/>
		
			<path fill="#FFFFFF" stroke="#FFFFFF" stroke-width="0.1963" stroke-linecap="round" stroke-linejoin="round" stroke-miterlimit="10" d="
			M40.396,1.996c-2.388-1.05-5.52-1.629-8.819-1.629c-6.75,0-12.969,2.479-12.969,6.485c0,1.002,0,8.794,0,9.729
			c-1.279-0.372-2.614-0.565-3.977-0.565c-3.801,0-7.384,1.502-10.087,4.229c-2.694,2.72-4.178,6.315-4.178,10.123
			c0,7.866,6.399,14.266,14.266,14.266c2.625,0,5.148-0.706,7.354-2.026c2.413,1.293,5.849,2.026,9.592,2.026
			c3.299,0,6.431-0.579,8.819-1.629c2.732-1.202,4.237-2.925,4.237-4.855c0-0.808,0-30.474,0-31.298
			C44.634,4.922,43.129,3.197,40.396,1.996z M14.632,42.041c-6.436,0-11.672-5.237-11.672-11.672
			c0-6.484,5.237-11.758,11.672-11.758c6.484,0,11.758,5.274,11.758,11.758C26.39,36.804,21.116,42.041,14.632,42.041z
			 M42.04,38.149c0,1.586-4.076,3.891-10.462,3.891c-2.716,0-5.283-0.436-7.229-1.199c0.136-0.126,0.272-0.255,0.406-0.386
			c1.167-1.158,2.11-2.476,2.808-3.904c1.288,0.199,2.634,0.3,4.016,0.3c3.411,0,7.64-0.663,10.462-2.508V38.149z M42.04,30.368
			c0,1.586-4.076,3.891-10.462,3.891c-1.057,0-2.089-0.066-3.083-0.195c0.322-1.191,0.489-2.431,0.489-3.696
			c0-0.509-0.028-1.015-0.081-1.515c0.875,0.086,1.769,0.13,2.675,0.13c3.411,0,7.64-0.662,10.462-2.509V30.368z M42.04,22.5
			c0,1.586-4.076,3.891-10.462,3.891c-1.104,0-2.184-0.072-3.223-0.213c-0.673-2.183-1.873-4.192-3.537-5.875
			c2.005,0.585,4.334,0.9,6.76,0.9c3.411,0,7.64-0.663,10.462-2.509V22.5z M42.04,14.719c0,1.586-4.076,3.891-10.462,3.891
			c-2.94,0-5.684-0.5-7.727-1.408c-1.633-0.726-2.649-1.677-2.649-2.483v-3.874c2.808,1.841,7.001,2.491,10.375,2.491
			c3.411,0,7.64-0.663,10.462-2.509V14.719z M31.578,10.741c-6.335,0-10.375-2.27-10.375-3.89c0-1.626,4.052-3.891,10.375-3.891
			c6.386,0,10.462,2.304,10.462,3.891C42.04,8.438,37.963,10.741,31.578,10.741z"/>
	</g>
	<rect fill="none" width="45" height="45"/>
</g>
</svg>
