<?xml version="1.0" encoding="utf-8"?>
<!-- Generator: Adobe Illustrator 16.0.0, SVG Export Plug-In . SVG Version: 6.00 Build 0)  -->
<!DOCTYPE svg PUBLIC "-//W3C//DTD SVG 1.1//EN" "http://www.w3.org/Graphics/SVG/1.1/DTD/svg11.dtd">
<svg version="1.1" id="Layer_1" xmlns="http://www.w3.org/2000/svg" xmlns:xlink="http://www.w3.org/1999/xlink" x="0px" y="0px"
	 width="35px" height="35px" viewBox="0 0 35 35" enable-background="new 0 0 35 35" xml:space="preserve">
<g>
	<path fill="#00CA71" d="M18.584,10.475c1.482,0.25,2.828,0.95,3.902,2.025c1.075,1.074,1.771,2.421,2.025,3.903
		c0.062,0.374,0.385,0.634,0.753,0.634c0.045,0,0.084-0.006,0.131-0.011c0.418-0.068,0.695-0.465,0.628-0.883
		c-0.307-1.793-1.155-3.428-2.45-4.724c-1.295-1.296-2.931-2.143-4.724-2.449c-0.418-0.068-0.808,0.21-0.882,0.623
		C17.894,10.005,18.166,10.407,18.584,10.475z"/>
	<path fill="#00CA71" d="M30.871,15.922c-0.503-2.953-1.896-5.64-4.034-7.779c-2.138-2.138-4.824-3.529-7.778-4.034
		c-0.413-0.073-0.803,0.21-0.877,0.623c-0.068,0.419,0.209,0.81,0.628,0.882c2.636,0.447,5.04,1.696,6.952,3.604
		c1.913,1.912,3.157,4.317,3.604,6.953c0.062,0.374,0.384,0.633,0.752,0.633c0.045,0,0.084-0.005,0.13-0.011
		C30.662,16.732,30.945,16.334,30.871,15.922z"/>
	
		<path fill="none" stroke="#4F5653" stroke-width="1.7976" stroke-linecap="round" stroke-linejoin="round" stroke-miterlimit="10" d="
		M25.282,20.703c-0.549-0.572-1.211-0.877-1.913-0.877c-0.695,0-1.363,0.299-1.933,0.87l-1.789,1.784
		c-0.146-0.08-0.294-0.154-0.435-0.228c-0.205-0.103-0.397-0.198-0.56-0.299c-1.675-1.064-3.197-2.45-4.656-4.244
		c-0.707-0.894-1.183-1.646-1.528-2.41c0.464-0.424,0.894-0.865,1.313-1.289c0.159-0.159,0.317-0.324,0.475-0.481
		c1.188-1.189,1.188-2.727,0-3.916L12.711,8.07c-0.174-0.176-0.356-0.357-0.525-0.537c-0.34-0.352-0.696-0.713-1.064-1.053
		c-0.548-0.543-1.205-0.831-1.896-0.831c-0.689,0-1.356,0.288-1.922,0.831C7.298,6.487,7.298,6.487,7.291,6.491l-1.923,1.94
		c-0.725,0.725-1.136,1.607-1.227,2.631c-0.136,1.652,0.351,3.191,0.724,4.198c0.917,2.473,2.285,4.763,4.329,7.22
		c2.477,2.958,5.458,5.294,8.864,6.939c1.301,0.618,3.039,1.346,4.978,1.472c0.12,0.006,0.243,0.011,0.356,0.011
		c1.307,0,2.405-0.47,3.265-1.403c0.005-0.01,0.016-0.016,0.022-0.027c0.294-0.357,0.633-0.679,0.989-1.024
		c0.244-0.232,0.493-0.476,0.735-0.73c0.561-0.583,0.854-1.262,0.854-1.958c0-0.702-0.299-1.375-0.871-1.941L25.282,20.703z"/>
</g>
<rect fill="none" width="35" height="35"/>
</svg>
