<?xml version="1.0" encoding="utf-8"?>
<!-- Generator: Adobe Illustrator 16.0.0, SVG Export Plug-In . SVG Version: 6.00 Build 0)  -->
<!DOCTYPE svg PUBLIC "-//W3C//DTD SVG 1.1//EN" "http://www.w3.org/Graphics/SVG/1.1/DTD/svg11.dtd">
<svg version="1.1" id="Layer_1" xmlns="http://www.w3.org/2000/svg" xmlns:xlink="http://www.w3.org/1999/xlink" x="0px" y="0px"
	 width="35px" height="35px" viewBox="0 0 35 35" enable-background="new 0 0 35 35" xml:space="preserve">
<g>
	<path fill="#4F5653" d="M29.547,5.371H5.46c-2.15,0-3.898,1.748-3.898,3.898v16.462c0,2.15,1.748,3.897,3.898,3.897h24.079
		c2.151,0,3.899-1.747,3.899-3.897V9.274C33.444,7.125,31.697,5.371,29.547,5.371z M31.664,25.731c0,1.168-0.949,2.117-2.117,2.117
		H5.46c-1.168,0-2.117-0.949-2.117-2.117V9.274c0-1.166,0.949-2.114,2.117-2.114h24.079c1.168,0,2.118,0.948,2.118,2.114v16.457
		H31.664z"/>
	<path fill="#00CA71" d="M21.665,17.296l7.796-6.991c0.362-0.331,0.396-0.89,0.065-1.26c-0.329-0.363-0.89-0.396-1.26-0.066
		l-10.749,9.649l-2.099-1.872c-0.007-0.007-0.014-0.015-0.014-0.021c-0.046-0.046-0.092-0.086-0.145-0.126L6.727,8.973
		c-0.371-0.33-0.931-0.297-1.26,0.072c-0.33,0.37-0.298,0.929,0.072,1.26l7.888,7.051L5.572,24.71
		c-0.355,0.335-0.377,0.896-0.039,1.259c0.178,0.185,0.415,0.284,0.652,0.284c0.217,0,0.436-0.079,0.605-0.237l7.975-7.459
		l2.164,1.932c0.171,0.152,0.382,0.224,0.593,0.224s0.43-0.078,0.595-0.23l2.223-1.992l7.927,7.531
		c0.172,0.166,0.396,0.245,0.614,0.245c0.237,0,0.467-0.092,0.646-0.277c0.337-0.356,0.324-0.923-0.032-1.259L21.665,17.296z"/>
</g>
<rect fill="none" width="35" height="35"/>
</svg>
