<?xml version="1.0" encoding="utf-8"?>
<!-- Generator: Adobe Illustrator 16.0.0, SVG Export Plug-In . SVG Version: 6.00 Build 0)  -->
<!DOCTYPE svg PUBLIC "-//W3C//DTD SVG 1.1//EN" "http://www.w3.org/Graphics/SVG/1.1/DTD/svg11.dtd">
<svg version="1.1" xmlns="http://www.w3.org/2000/svg" xmlns:xlink="http://www.w3.org/1999/xlink" x="0px" y="0px" width="45px"
	 height="45px" viewBox="0 0 45 45" enable-background="new 0 0 45 45" xml:space="preserve">
<g id="Layer_2" display="none">
	<rect x="-291" y="-98.701" display="inline" fill="#1D1D1B" width="410" height="198.5"/>
</g>
<g id="Layer_1">
	<g>
		<path fill="#FFFFFF" stroke="#FFFFFF" stroke-width="0.6" stroke-miterlimit="10" d="M19.884,24.521v13.266
			c0,1.943-1.396,3.523-3.114,3.523H9.466c-2.945,0-5.316-1.267-6.857-3.663C1.302,35.614,0.61,32.77,0.61,29.421
			c0-5.258,1.651-11.228,4.416-15.968c3.19-5.473,7.361-8.485,11.743-8.485c1.718,0,3.114,1.58,3.114,3.523v1.637
			c0,0.647-0.525,1.172-1.172,1.172c-0.648,0-1.172-0.524-1.172-1.172V8.491c0-0.676-0.407-1.18-0.771-1.18
			c-4.741,0-8.124,4.587-9.719,7.322c-2.526,4.332-4.097,9.998-4.097,14.787c0,2.898,0.563,5.305,1.626,6.959
			c1.104,1.716,2.747,2.586,4.886,2.586h7.304c0.363,0,0.771-0.505,0.771-1.18V24.521c0-0.648,0.523-1.173,1.172-1.173
			C19.358,23.348,19.884,23.872,19.884,24.521z M39.976,13.453c-3.19-5.473-7.36-8.485-11.744-8.485
			c-1.717,0-3.111,1.58-3.111,3.523v1.681c0,0.646,0.521,1.172,1.17,1.172c0.646,0,1.172-0.525,1.172-1.172V8.491
			c0-0.676,0.406-1.18,0.77-1.18c4.741,0,8.125,4.587,9.719,7.322c2.527,4.332,4.098,9.998,4.098,14.786
			c0,2.898-0.563,5.306-1.625,6.96c-1.105,1.716-2.748,2.586-4.888,2.586h-7.304c-0.363,0-0.77-0.505-0.77-1.18V24.348
			c0-0.647-0.525-1.173-1.172-1.173c-0.648,0-1.172,0.525-1.172,1.173v13.438c0,1.943,1.396,3.523,3.113,3.523h7.304
			c2.946,0,5.317-1.267,6.858-3.663c1.307-2.032,1.996-4.877,1.996-8.227C44.392,24.163,42.739,18.193,39.976,13.453z"/>
		<path fill="#00CA71" stroke="#00CA71" stroke-width="0.6" stroke-miterlimit="10" d="M29.063,27.671
			c0,0.647,0.524,1.172,1.172,1.172c0.646,0,1.172-0.524,1.172-1.172v-3.417l3.085,1.468c0.585,0.278,1.283,0.03,1.562-0.555
			c0.278-0.584,0.029-1.283-0.555-1.562l-4.56-2.169l-7.268-7.805v-8.77c0-0.646-0.521-1.172-1.17-1.172
			c-0.646,0-1.172,0.525-1.172,1.172v8.769l-7.267,7.805l-4.56,2.17c-0.585,0.278-0.833,0.978-0.555,1.562
			C9.227,25.752,9.925,26,10.51,25.722l3.085-1.468v3.417c0,0.647,0.525,1.172,1.172,1.172c0.647,0,1.172-0.524,1.172-1.172V22.86
			l6.563-7.049l6.562,7.048V27.671L29.063,27.671z"/>
	</g>
	<rect fill="none" width="45" height="45"/>
</g>
</svg>
