<?xml version="1.0" encoding="utf-8"?>
<!-- Generator: Adobe Illustrator 16.0.0, SVG Export Plug-In . SVG Version: 6.00 Build 0)  -->
<!DOCTYPE svg PUBLIC "-//W3C//DTD SVG 1.1//EN" "http://www.w3.org/Graphics/SVG/1.1/DTD/svg11.dtd">
<svg version="1.1" id="Layer_1" xmlns="http://www.w3.org/2000/svg" xmlns:xlink="http://www.w3.org/1999/xlink" x="0px" y="0px"
	 width="59px" height="59px" viewBox="0 0 59 59" enable-background="new 0 0 59 59" xml:space="preserve">
<path fill="#4F5653" stroke="#4F5653" stroke-width="0.316" stroke-miterlimit="10" d="M51.741,47.004L44.04,33.473
	c0.78-0.363,1.249-1.196,1.196-2.134l-0.573-4.787l3.279-3.436c0.728-0.728,0.779-1.977,0.051-2.861l-3.278-3.538l0.676-4.841
	c0.105-1.041-0.623-2.082-1.664-2.29l-4.736-0.937l-2.29-4.217c-0.469-0.987-1.615-1.403-2.654-0.987h-0.053l-4.372,2.029
	l-4.267-2.081c-0.468-0.261-1.041-0.313-1.562-0.155c-0.521,0.155-0.936,0.521-1.197,0.987l-2.341,4.216l-4.735,0.832
	c-1.095,0.209-1.822,1.197-1.718,2.344l0.573,4.787l-3.279,3.433c-0.728,0.729-0.78,1.979-0.052,2.863l3.279,3.539l-0.677,4.84
	C13.543,32.016,14.116,32.9,15,33.265L7.247,47.004c-0.209,0.312-0.157,0.728,0,1.04c0.208,0.313,0.519,0.52,0.883,0.52h8.327
	l3.799,6.61c0.208,0.313,0.521,0.521,0.885,0.521s0.728-0.208,0.885-0.521l7.441-12.698l7.443,12.854
	c0.208,0.313,0.519,0.521,0.884,0.521c0.364,0,0.729-0.209,0.885-0.521l3.8-6.766h8.325c0.364,0,0.729-0.207,0.885-0.52
	C51.949,47.731,51.949,47.315,51.741,47.004z M21.192,52.571l-3.226-5.567c-0.209-0.313-0.521-0.521-0.885-0.521H9.9l7.182-12.697
	l2.967,0.521l2.29,4.215c0.468,0.988,1.613,1.405,2.654,0.988h0.051l2.133-0.988l1.041,1.823L21.192,52.571z M24.211,37.636
	c-0.052,0-0.052,0-0.052,0l-2.29-4.318c-0.313-0.521-0.832-0.938-1.456-0.99l-4.79-0.884l0.677-4.788
	c0.104-0.624-0.103-1.301-0.52-1.717l-3.227-3.539l3.278-3.434c0.468-0.47,0.677-1.094,0.573-1.719l-0.573-4.736
	c0,0,0-0.052,0.052-0.104l4.736-0.832c0.572-0.104,1.145-0.469,1.458-1.04l2.342-4.216l4.267,2.08c0.572,0.313,1.3,0.313,1.873,0
	l4.32-1.977c0.052,0,0.052,0,0.052,0l2.29,4.32c0.312,0.52,0.832,0.937,1.405,0.987l4.737,0.938l-0.677,4.787
	c-0.104,0.625,0.104,1.302,0.521,1.718l3.278,3.537l-3.332,3.436c-0.467,0.469-0.675,1.094-0.571,1.718l0.571,4.788l-4.683,0.78
	c-0.573,0.104-1.146,0.469-1.457,1.041l-2.342,4.216l-4.267-2.083c-0.574-0.312-1.301-0.312-1.874,0L24.211,37.636z M41.905,46.482
	c-0.365,0-0.728,0.208-0.886,0.521l-3.226,5.724l-7.338-12.698c-0.051-0.156-0.103-0.259-0.208-0.363l-1.145-2.03l0.363-0.156
	l4.269,2.082c0.313,0.155,0.623,0.209,0.936,0.209c0.729,0,1.458-0.364,1.822-1.042l2.342-4.215l3.122-0.572l7.129,12.541H41.905z"
	/>
<path fill="#00CA71" d="M39.876,21.504c0-5.725-4.684-10.408-10.409-10.408c-5.723,0-10.408,4.684-10.408,10.408
	c0,5.723,4.685,10.407,10.408,10.407C35.192,31.911,39.876,27.227,39.876,21.504z M29.467,29.829c-4.579,0-8.326-3.746-8.326-8.325
	s3.747-8.327,8.326-8.327c4.581,0,8.327,3.748,8.327,8.327S34.048,29.829,29.467,29.829z"/>
</svg>
