<?xml version="1.0" encoding="utf-8"?>
<!-- Generator: Adobe Illustrator 16.0.0, SVG Export Plug-In . SVG Version: 6.00 Build 0)  -->
<!DOCTYPE svg PUBLIC "-//W3C//DTD SVG 1.1//EN" "http://www.w3.org/Graphics/SVG/1.1/DTD/svg11.dtd">
<svg version="1.1" id="Layer_1" xmlns="http://www.w3.org/2000/svg" xmlns:xlink="http://www.w3.org/1999/xlink" x="0px" y="0px"
	 width="59px" height="59px" viewBox="0 0 59 59" enable-background="new 0 0 59 59" xml:space="preserve">
<path fill="#00CA71" d="M51.763,12.268c0.201-0.201,0.308-0.473,0.308-0.757l-0.071-5.832c-0.012-0.592-0.496-1.065-1.088-1.065
	c-0.592,0.013-1.065,0.498-1.065,1.089l0.036,3.241l-0.154-0.154C38.312-2.365,19.952-2.152,8.797,9.263
	c-3.868,3.964-6.506,8.908-7.63,14.303c-1.088,5.252-0.722,10.693,1.088,15.722c0.154,0.438,0.568,0.709,1.006,0.709
	c0.118,0,0.249-0.023,0.367-0.059c0.556-0.201,0.852-0.816,0.65-1.372c-3.501-9.748-1.171-20.407,6.057-27.8
	C20.662,0.201,37.661,0,48.226,10.328l0.166,0.165l-3.242,0.036c-0.592,0.012-1.064,0.496-1.064,1.088
	c0.012,0.592,0.484,1.064,1.076,1.064h0.012l5.832-0.071C51.289,12.588,51.562,12.48,51.763,12.268z"/>
<path fill="#00CA71" d="M56.743,19.686c-0.201-0.557-0.816-0.852-1.373-0.651c-0.556,0.202-0.852,0.816-0.65,1.372
	c3.502,9.748,1.172,20.406-6.057,27.8c-5.004,5.123-11.699,7.985-18.856,8.068c-7.169,0.095-13.924-2.626-19.034-7.618l-0.166-0.166
	l3.241-0.035c0.592-0.012,1.065-0.497,1.065-1.088c-0.012-0.592-0.485-1.077-1.088-1.065l-5.832,0.071
	c-0.591,0.012-1.065,0.497-1.065,1.088l0.071,5.832c0.012,0.592,0.485,1.064,1.076,1.064h0.012c0.591-0.012,1.064-0.496,1.064-1.088
	l-0.036-3.241l0.166,0.165c5.454,5.324,12.61,8.246,20.217,8.246c0.118,0,0.225,0,0.344,0c7.725-0.095,14.964-3.183,20.369-8.707
	c3.869-3.963,6.508-8.908,7.631-14.302C58.919,30.166,58.553,24.725,56.743,19.686z"/>
<path fill="#4F5653" d="M29.487,12.02c-2.295,0-4.543,0.449-6.672,1.336c-4.307,1.787-7.666,5.146-9.452,9.453
	c-1.786,4.306-1.786,9.061,0,13.367c2.709,6.554,9.05,10.789,16.147,10.789c2.295,0,4.543-0.45,6.672-1.337
	c8.896-3.68,13.143-13.924,9.451-22.819C42.926,16.254,36.585,12.02,29.487,12.02z M42.949,22.146h-3.537
	c-0.698-2.556-1.751-4.731-3.063-6.376C39.104,17.142,41.423,19.354,42.949,22.146z M15.09,34.674
	c-1.218-3.372-1.218-7.016,0-10.387h4.874c-0.295,1.62-0.449,3.371-0.449,5.193c0,1.81,0.178,3.549,0.485,5.193H15.09z
	 M21.655,29.48c0-1.834,0.178-3.585,0.486-5.193h6.707v10.387H22.2C21.856,33.041,21.655,31.29,21.655,29.48z M31.001,14.586
	c2.697,0.604,4.945,3.479,6.176,7.571h-6.176V14.586z M28.86,14.586v7.56h-6.176C23.915,18.064,26.163,15.189,28.86,14.586z
	 M28.86,36.826v7.547c-2.531-0.662-4.779-3.584-6.068-7.547H28.86z M31.001,44.373v-7.547h6.069
	C35.78,40.789,33.532,43.711,31.001,44.373z M31.001,34.674V24.287h6.707c0.32,1.608,0.486,3.359,0.486,5.193
	c0,1.81-0.201,3.561-0.557,5.193H31.001z M39.897,24.287h4.021c1.254,3.465,1.172,7.133-0.012,10.387h-4.057
	c0.318-1.645,0.484-3.384,0.484-5.193C40.335,27.658,40.181,25.92,39.897,24.287z M23.644,15.332
	c0.117-0.048,0.248-0.095,0.366-0.143c-1.55,1.703-2.779,4.105-3.561,6.968h-4.4C17.717,19.082,20.366,16.681,23.644,15.332z
	 M16.049,36.826h4.46c0.828,2.898,2.141,5.336,3.762,7.074C20.792,42.635,17.858,40.15,16.049,36.826z M36.089,43.32
	c1.383-1.68,2.508-3.915,3.252-6.494h3.597C41.435,39.57,39.093,41.89,36.089,43.32z"/>
</svg>
