<?xml version="1.0" encoding="utf-8"?>
<!-- Generator: Adobe Illustrator 16.0.0, SVG Export Plug-In . SVG Version: 6.00 Build 0)  -->
<!DOCTYPE svg PUBLIC "-//W3C//DTD SVG 1.1//EN" "http://www.w3.org/Graphics/SVG/1.1/DTD/svg11.dtd">
<svg version="1.1" id="Layer_1" xmlns="http://www.w3.org/2000/svg" xmlns:xlink="http://www.w3.org/1999/xlink" x="0px" y="0px"
	 width="16px" height="19.125px" viewBox="0 0 16 19.125" enable-background="new 0 0 16 19.125" xml:space="preserve">
<g>
	<path fill="none" stroke="#A5A5A5" stroke-miterlimit="10" d="M14.829,15.063H1.171c-0.207,0-0.275-0.332-0.275-0.54V4.299
		c0-0.086-0.022-0.167,0.027-0.23C0.941,4.045,0.937,4.105,0.96,4.086c0.063-0.052,0.122-0.003,0.21-0.003h13.658
		c0.207,0,0.275,0.008,0.275,0.216v10.224C15.104,14.731,15.036,15.063,14.829,15.063z"/>
	<path fill="none" stroke="#A5A5A5" stroke-miterlimit="10" d="M0.873,4.069l5.599,5.48c0.878,0.828,2.281,0.822,3.152-0.012
		l5.527-5.43"/>
	<line fill="none" stroke="#A5A5A5" stroke-miterlimit="10" x1="15.151" y1="14.714" x2="10.604" y2="8.575"/>
	<line fill="none" stroke="#A5A5A5" stroke-miterlimit="10" x1="0.849" y1="14.714" x2="5.491" y2="8.575"/>
</g>
</svg>
