<?xml version="1.0" encoding="utf-8"?>
<!-- Generator: Adobe Illustrator 16.0.0, SVG Export Plug-In . SVG Version: 6.00 Build 0)  -->
<!DOCTYPE svg PUBLIC "-//W3C//DTD SVG 1.1//EN" "http://www.w3.org/Graphics/SVG/1.1/DTD/svg11.dtd">
<svg version="1.1" xmlns="http://www.w3.org/2000/svg" xmlns:xlink="http://www.w3.org/1999/xlink" x="0px" y="0px" width="45px"
	 height="45px" viewBox="0 0 45 45" enable-background="new 0 0 45 45" xml:space="preserve">
<g id="Layer_2" display="none">
	<rect x="-50.5" y="-33.201" display="inline" fill="#1D1D1B" width="410" height="198.5"/>
</g>
<g id="Layer_1">
	<g>
		
			<rect x="18.912" y="28.964" fill="#00CA71" stroke="#00CA71" stroke-width="2.5456" stroke-linecap="round" stroke-linejoin="round" stroke-miterlimit="10" width="7.176" height="11.796"/>
		<path fill="none" stroke="#FFFFFF" stroke-width="3" stroke-linecap="round" stroke-linejoin="round" stroke-miterlimit="10" d="
			M31.531,40.76h4.55c0.787,0,1.43-0.644,1.43-1.43V25.987h4.051c0.571,0,1.096-0.357,1.311-0.881
			c0.214-0.524,0.095-1.145-0.31-1.549L23.93,4.663c-0.548-0.548-1.453-0.572-2.001-0.024L2.461,23.533
			c-0.429,0.405-0.548,1.024-0.333,1.573c0.214,0.548,0.738,0.881,1.311,0.881h3.336V39.33c0,0.786,0.643,1.43,1.429,1.43h5.266"/>
	</g>
	<rect fill="none" width="45" height="45"/>
</g>
</svg>
