<?xml version="1.0" encoding="utf-8"?>
<!-- Generator: Adobe Illustrator 16.0.0, SVG Export Plug-In . SVG Version: 6.00 Build 0)  -->
<!DOCTYPE svg PUBLIC "-//W3C//DTD SVG 1.1//EN" "http://www.w3.org/Graphics/SVG/1.1/DTD/svg11.dtd">
<svg version="1.1" xmlns="http://www.w3.org/2000/svg" xmlns:xlink="http://www.w3.org/1999/xlink" x="0px" y="0px" width="45px"
	 height="45px" viewBox="0 0 45 45" enable-background="new 0 0 45 45" xml:space="preserve">
<g id="Layer_2" display="none">
	<rect x="-127.5" y="-33.201" display="inline" fill="#1D1D1B" width="410" height="198.5"/>
</g>
<g id="Layer_1">
	<g>
		<g>
			<path fill="none" stroke="#FFFFFF" stroke-width="3" stroke-linecap="round" stroke-linejoin="round" stroke-miterlimit="10" d="
				M28.863,24.143V7.83c0-3.367-2.832-6.106-6.313-6.106c-3.48,0-6.313,2.739-6.313,6.106v16.365
				c-3.045,2.013-4.771,5.051-4.771,8.458c0,5.858,4.949,10.623,11.033,10.623c6.084,0,11.035-4.765,11.035-10.6
				C33.584,29.167,31.934,26.167,28.863,24.143z"/>
		</g>
		<ellipse fill="#00CA71" cx="22.499" cy="32.808" rx="6.427" ry="5.939"/>
		
			<line fill="none" stroke="#00CA71" stroke-width="3" stroke-linecap="round" stroke-linejoin="round" stroke-miterlimit="10" x1="22.5" y1="32.808" x2="22.5" y2="20.104"/>
		
			<line fill="none" stroke="#FFFFFF" stroke-width="3" stroke-linecap="round" stroke-linejoin="round" stroke-miterlimit="10" x1="28.351" y1="11.264" x2="25.474" y2="11.264"/>
		
			<line fill="none" stroke="#FFFFFF" stroke-width="3" stroke-linecap="round" stroke-linejoin="round" stroke-miterlimit="10" x1="28.351" y1="16.354" x2="25.474" y2="16.354"/>
	</g>
	<rect fill="none" width="45" height="45"/>
</g>
</svg>
