<?xml version="1.0" encoding="utf-8"?>
<!-- Generator: Adobe Illustrator 16.0.0, SVG Export Plug-In . SVG Version: 6.00 Build 0)  -->
<!DOCTYPE svg PUBLIC "-//W3C//DTD SVG 1.1//EN" "http://www.w3.org/Graphics/SVG/1.1/DTD/svg11.dtd">
<svg version="1.1" xmlns="http://www.w3.org/2000/svg" xmlns:xlink="http://www.w3.org/1999/xlink" x="0px" y="0px" width="45px"
	 height="45px" viewBox="0 0 45 45" enable-background="new 0 0 45 45" xml:space="preserve">
<g id="Layer_2" display="none">
	<rect x="-291" y="-33.201" display="inline" fill="#1D1D1B" width="410" height="198.5"/>
</g>
<g id="Layer_1">
	<g>
		<path fill="none" stroke="#FFFFFF" stroke-width="3" stroke-linecap="round" stroke-linejoin="round" stroke-miterlimit="10" d="
			M12.351,30.841l9.841,11.689c0.176,0.209,0.463,0.205,0.637,0l9.854-11.705"/>
		<path fill="none" stroke="#FFFFFF" stroke-width="3" stroke-linecap="round" stroke-linejoin="round" stroke-miterlimit="10" d="
			M5.053,17.492c-0.773-1.066-1.33-2.295-1.608-3.625c-0.132-0.631-0.202-1.283-0.202-1.955c0-5.3,4.354-9.598,9.724-9.598
			c4.431,0,8.168,2.926,9.342,6.925l0.403,0.009c1.173-4.001,4.912-6.926,9.343-6.926c5.37,0,9.724,4.299,9.724,9.597
			c0,0.671-0.07,1.325-0.203,1.955c-0.286,1.367-0.867,2.629-1.675,3.717"/>
		
			<polyline fill="none" stroke="#00CA71" stroke-width="3" stroke-linecap="round" stroke-linejoin="round" stroke-miterlimit="10" points="
			3.222,24.479 10.709,24.341 14.871,18.122 20.866,28.866 25.974,24.794 40.86,24.794 		"/>
	</g>
	<rect fill="none" width="45" height="45"/>
</g>
</svg>
