<?xml version="1.0" encoding="utf-8"?>
<!-- Generator: Adobe Illustrator 16.0.0, SVG Export Plug-In . SVG Version: 6.00 Build 0)  -->
<!DOCTYPE svg PUBLIC "-//W3C//DTD SVG 1.1//EN" "http://www.w3.org/Graphics/SVG/1.1/DTD/svg11.dtd">
<svg version="1.1" id="Layer_1" xmlns="http://www.w3.org/2000/svg" xmlns:xlink="http://www.w3.org/1999/xlink" x="0px" y="0px"
	 width="16px" height="12px" viewBox="0 0 16 12" enable-background="new 0 0 16 12" xml:space="preserve">
<g>
	<path fill="#FFFFFF" d="M15.897,6.3c0.011-0.018,0.02-0.036,0.028-0.054c0.01-0.019,0.021-0.037,0.028-0.056
		c0.008-0.019,0.013-0.039,0.019-0.058c0.006-0.02,0.013-0.04,0.016-0.06c0.004-0.02,0.005-0.04,0.007-0.06S16,5.973,16,5.952
		c0-0.02-0.003-0.039-0.005-0.059c-0.002-0.021-0.003-0.042-0.007-0.062c-0.004-0.02-0.011-0.038-0.017-0.057
		c-0.006-0.02-0.011-0.041-0.019-0.06s-0.019-0.037-0.028-0.055c-0.01-0.019-0.019-0.037-0.03-0.055
		c-0.012-0.017-0.026-0.033-0.039-0.049c-0.012-0.015-0.022-0.03-0.035-0.044l-5.224-5.323C10.353-0.06,9.953-0.063,9.704,0.181
		C9.455,0.425,9.451,0.825,9.695,1.074l4.169,4.249H0.632C0.283,5.323,0,5.606,0,5.955c0,0.349,0.283,0.631,0.632,0.631H13.88
		l-4.198,4.342c-0.242,0.252-0.235,0.651,0.016,0.894C9.819,11.94,9.979,12,10.136,12c0.165,0,0.33-0.064,0.454-0.192l5.233-5.414
		c0.013-0.013,0.021-0.028,0.033-0.042C15.87,6.334,15.886,6.318,15.897,6.3z"/>
</g>
</svg>
