<?xml version="1.0" encoding="utf-8"?>
<!-- Generator: Adobe Illustrator 16.0.0, SVG Export Plug-In . SVG Version: 6.00 Build 0)  -->
<!DOCTYPE svg PUBLIC "-//W3C//DTD SVG 1.1//EN" "http://www.w3.org/Graphics/SVG/1.1/DTD/svg11.dtd">
<svg version="1.1" xmlns="http://www.w3.org/2000/svg" xmlns:xlink="http://www.w3.org/1999/xlink" x="0px" y="0px" width="45px"
	 height="45px" viewBox="0 0 45 45" enable-background="new 0 0 45 45" xml:space="preserve">
<g id="Layer_2" display="none">
	<rect x="-205.5" y="-33.201" display="inline" fill="#1D1D1B" width="410" height="198.5"/>
</g>
<g id="Layer_1">
	<g>
		<path fill="none" stroke="#FFFFFF" stroke-width="3" stroke-linecap="round" stroke-linejoin="round" stroke-miterlimit="10" d="
			M39.229,27.388c1.825-3.314,2.251-7.322,0.305-11.277c-2.153-4.392-6.924-8.064-13.172-10.429
			c-6.04-2.322-13.471-3.419-21.154-2.871C4.617,2.853,4.152,3.359,4.193,3.95c0.044,0.296,0.17,0.592,0.424,0.761
			c3.884,3.336,5.276,8.36,6.713,13.385c0.845,2.955,1.646,5.868,2.998,8.57c0,0.042,0.041,0.042,0.041,0.084
			c3.252,6.291,8.235,8.571,12.962,8.275c1.208-0.079,2.384-0.321,3.516-0.695"/>
		<path fill="none" stroke="#00CA71" stroke-width="3" stroke-linecap="round" stroke-linejoin="round" stroke-miterlimit="10" d="
			M18.011,14.15c0,0,16.918,8.806,22.479,28.179"/>
	</g>
	<rect fill="none" width="45" height="45"/>
</g>
</svg>
