<?xml version="1.0" encoding="utf-8"?>
<!-- Generator: Adobe Illustrator 16.0.0, SVG Export Plug-In . SVG Version: 6.00 Build 0)  -->
<!DOCTYPE svg PUBLIC "-//W3C//DTD SVG 1.1//EN" "http://www.w3.org/Graphics/SVG/1.1/DTD/svg11.dtd">
<svg version="1.1" xmlns="http://www.w3.org/2000/svg" xmlns:xlink="http://www.w3.org/1999/xlink" x="0px" y="0px" width="45px"
	 height="45px" viewBox="0 0 45 45" enable-background="new 0 0 45 45" xml:space="preserve">
<g id="Layer_2" display="none">
	<rect x="-49.5" y="-98.701" display="inline" fill="#1D1D1B" width="410" height="198.5"/>
</g>
<g id="Layer_1">
	<g>
		
			<path fill="none" stroke="#FFFFFF" stroke-width="2.8557" stroke-linecap="round" stroke-linejoin="round" stroke-miterlimit="10" d="
			M37.096,7.041h-9.087V3.406c0-0.819-0.663-1.482-1.482-1.482h-8.101c-0.818,0-1.483,0.663-1.483,1.482v3.635H7.904
			c-0.819,0-1.482,0.664-1.482,1.482v9.972c0,0.818,0.664,1.481,1.482,1.481h9.039v21.618c0,0.819,0.665,1.482,1.483,1.482h8.101
			c0.819,0,1.482-0.663,1.482-1.482V19.977h9.087c0.819,0,1.482-0.664,1.482-1.481V8.523C38.578,7.705,37.915,7.041,37.096,7.041z"
			/>
		
			<line fill="none" stroke="#00CA71" stroke-width="2.8557" stroke-linecap="round" stroke-linejoin="round" stroke-miterlimit="10" x1="20.358" y1="37.418" x2="24.724" y2="37.418"/>
		
			<line fill="none" stroke="#00CA71" stroke-width="2.8557" stroke-linecap="round" stroke-linejoin="round" stroke-miterlimit="10" x1="20.358" y1="31.933" x2="24.724" y2="31.933"/>
		
			<line fill="none" stroke="#00CA71" stroke-width="2.8557" stroke-linecap="round" stroke-linejoin="round" stroke-miterlimit="10" x1="20.358" y1="26.448" x2="24.724" y2="26.448"/>
		
			<line fill="none" stroke="#FFFFFF" stroke-width="2.8557" stroke-linecap="round" stroke-linejoin="round" stroke-miterlimit="10" x1="10.843" y1="7.041" x2="34.874" y2="7.041"/>
		
			<line fill="none" stroke="#FFFFFF" stroke-width="2.8557" stroke-linecap="round" stroke-linejoin="round" stroke-miterlimit="10" x1="13.529" y1="19.977" x2="30.265" y2="19.977"/>
	</g>
	<rect fill="none" width="45" height="45"/>
</g>
</svg>
