<?xml version="1.0" encoding="utf-8"?>
<!-- Generator: Adobe Illustrator 16.0.0, SVG Export Plug-In . SVG Version: 6.00 Build 0)  -->
<!DOCTYPE svg PUBLIC "-//W3C//DTD SVG 1.1//EN" "http://www.w3.org/Graphics/SVG/1.1/DTD/svg11.dtd">
<svg version="1.1" id="Layer_1" xmlns="http://www.w3.org/2000/svg" xmlns:xlink="http://www.w3.org/1999/xlink" x="0px" y="0px"
	 width="16px" height="19.125px" viewBox="0 0 16 19.125" enable-background="new 0 0 16 19.125" xml:space="preserve">
<g>
	<path fill="none" stroke="#A5A5A5" stroke-miterlimit="10" d="M12.477,17.477H3.545c-0.206,0-0.395-0.336-0.395-0.536v-3.334V1.838
		c0-0.201,0.188-0.19,0.395-0.19h8.932c0.206,0,0.372-0.011,0.372,0.19v15.103C12.849,17.141,12.683,17.477,12.477,17.477z"/>
	<line fill="none" stroke="#A5A5A5" stroke-miterlimit="10" x1="3.151" y1="13.321" x2="12.849" y2="13.321"/>
	<line fill="none" stroke="#A5A5A5" stroke-miterlimit="10" x1="12.849" y1="4.072" x2="3.151" y2="4.072"/>
	<path fill="#A5A5A5" d="M7.95,14.476c-0.411,0-0.744,0.311-0.744,0.692s0.333,0.692,0.744,0.692s0.744-0.311,0.744-0.692
		S8.361,14.476,7.95,14.476"/>
</g>
</svg>
